<?xml version="1.0" encoding="utf-8"?>
<!-- Generator: Adobe Illustrator 22.1.0, SVG Export Plug-In . SVG Version: 6.00 Build 0)  -->
<svg version="1.1" id="Layer_1" xmlns="http://www.w3.org/2000/svg" xmlns:xlink="http://www.w3.org/1999/xlink" x="0px" y="0px"
	 viewBox="0 0 149.2 172.2" style="enable-background:new 0 0 149.2 172.2;" xml:space="preserve">
<style type="text/css">
	.st0{fill:#585858;}
	.st1{fill:#FFFFFF;}
</style>
<polygon class="st0" points="149.2,129.2 74.6,172.2 0,129.2 0,43.1 74.6,0 149.2,43.1 "/>
<path class="st1" d="M44.9,109.5l22.8,24.3l-11-24.3H44.9z M74.6,137.7l12.8-28.2H61.8L74.6,137.7z M56.8,104.8l7.5-14h-9.6
	l-10.5,14C44.1,104.8,56.8,104.8,56.8,104.8z M81.5,133.8l22.8-24.3H92.5L81.5,133.8z M62.1,104.8h25l-7.5-14h-10L62.1,104.8z
	 M92.4,104.8H105l-10.5-14h-9.6L92.4,104.8z M97.5,87.1l14.1,18.7c0.3,0.4,0.5,0.9,0.5,1.5c0,0.6-0.2,1.1-0.6,1.5l-35.1,37.4
	c-0.4,0.5-1,0.7-1.7,0.7c-0.7,0-1.3-0.2-1.7-0.7l-35.1-37.4c-0.4-0.4-0.6-0.9-0.6-1.5c0-0.6,0.1-1.1,0.5-1.5l14.1-18.7
	c0.4-0.6,1.1-0.9,1.9-0.9h42.2C96.5,86.1,97.1,86.4,97.5,87.1z"/>
<path class="st1" d="M89.8,30.6c2.4,10.6,4.3,20.8,2.2,31.2c-0.9,4.6-2.3,9.2-6.3,12.1c-3,2.2-6.4,3.2-10.2,1.4
	c-0.4-0.2-0.8-0.1-1.3-0.2c-0.7,10.6-0.9,21,3.7,30.9c0.4,0.8,0,2.6-0.6,3.1c-1.3,0.9-2.5,0-3-1.4c-1.3-3.7-3-7.4-3.5-11.2
	c-0.7-6.4-3.7-11.6-7.1-16.7c-2-3-4.1-6-6.6-8.5c-3.6-3.6-5-8.2-6.8-12.8c7.4,6.5,13.7,14,19.2,22.8c0.2-3,0.5-5.4,0.5-7.8
	c0-0.5-0.8-1-1.3-1.5c-8.6-7.1-9.8-18-2.9-26.7c3.5-4.4,8-7.6,13-10C82.4,33.6,86,32.3,89.8,30.6z M74.8,70.7
	c4.7,1.7,8.6,0.7,10.8-3.4c1.4-2.5,2.6-5.5,2.7-8.3c0.1-6.5-0.5-13-0.9-19.5c-0.1-1-0.4-1.9-0.7-3.1c-6.7,2.5-12.7,5.5-17,10.9
	c-1.8,2.3-3.1,5.2-4,8c-1.2,3.8,1,10.8,5.3,12.8c0.3-1.3,0.5-2.6,1-3.8c1.8-4,3.6-8,5.6-11.9c0.6-1.2,1.9-2.3,3.4-1.1
	c1.5,1.2,0.7,2.4-0.2,3.6C77.4,59.5,75.9,65,74.8,70.7z"/>
</svg>
